<?xml version="1.0" ?><!DOCTYPE svg  PUBLIC '-//W3C//DTD SVG 1.0//EN'  'http://www.w3.org/TR/2001/REC-SVG-20010904/DTD/svg10.dtd'><svg enable-background="new 0 0 16 16" height="100px" id="Layer_1" version="1.0" viewBox="0 0 16 16" width="100px" xml:space="preserve" xmlns="http://www.w3.org/2000/svg" xmlns:xlink="http://www.w3.org/1999/xlink"><path d="M14,7v6c0,0.551-0.447,1-1,1H3c-0.551,0-1-0.449-1-1V2h7l2-2H2C0.896,0,0,0.896,0,2v11c0,1.657,1.344,3,3,3  h10c1.658,0,3-1.343,3-3V5L14,7z" fill="#1D1D1B"/><polygon fill="#1D1D1B" points="4.215,11.763 8.215,10.763 8.215,10.763 6.715,9.263 5.215,7.763 "/><path d="M6.008,7.142l2.828,2.829l6.955-6.955c0.109-0.108,0.176-0.249,0.186-0.394  c0.012-0.143-0.035-0.275-0.129-0.369L13.803,0.21l-0.078-0.078C13.637,0.044,13.518,0,13.395,0c-0.15,0-0.309,0.063-0.432,0.188  L12.941,0.21l-2.002,2L6.008,7.142z" fill="#1D1D1B"/></svg>